<svg xmlns="http://www.w3.org/2000/svg" width="104.01" height="45.28" viewBox="0 0 104.01 45.28">
  <g id="Group_198" data-name="Group 198" transform="translate(-93 -70.5)">
    <g id="Group_197" data-name="Group 197">
      <g id="Group_125" data-name="Group 125" transform="translate(97.51 72)">
        <g id="Group_126" data-name="Group 126">
          <path id="Path_74" data-name="Path 74" d="M286.71,244.462a6.247,6.247,0,0,1-3.941-1.406l-27.584-22.341a.652.652,0,0,1-.1-.918h0a.652.652,0,0,1,.918-.1l27.584,22.34a4.931,4.931,0,0,0,6.2.037l28.328-22.389a.652.652,0,0,1,.916.107h0a.652.652,0,0,1-.107.916L290.594,243.1A6.25,6.25,0,0,1,286.71,244.462Z" transform="translate(-224.553 -217.058)" fill="#fff" stroke="#f6c331" stroke-width="1.5"/>
          <g id="Group_120" data-name="Group 120" transform="translate(30.112 20.513)">
            <rect id="Rectangle_53" data-name="Rectangle 53" width="27.77" height="1.305" rx="0.652" transform="matrix(0.761, -0.648, 0.648, 0.761, 0, 18.006)" fill="#fff" stroke="#f6c331" stroke-width="1.5"/>
          </g>
          <g id="Group_121" data-name="Group 121" transform="translate(72.14 20.505)">
            <rect id="Rectangle_54" data-name="Rectangle 54" width="1.305" height="28.371" rx="0.652" transform="translate(0 1.008) rotate(-50.599)" fill="#fff" stroke="#f6c331" stroke-width="1.5"/>
          </g>
          <path id="Path_78" data-name="Path 78" d="M7,0H64.51a7,7,0,0,1,7,7V35.28a7,7,0,0,1-7,7H7a7,7,0,0,1-7-7V7A7,7,0,0,1,7,0Z" transform="translate(26.49)" fill="none" stroke="#f6c331" stroke-width="3"/>
        </g>
      </g>
      <g id="Group_128" data-name="Group 128">
        <g id="Group_127" data-name="Group 127">
          <path id="Path_75" data-name="Path 75" d="M147,249h16.964a.652.652,0,0,1,.652.652h0a.652.652,0,0,1-.652.652H147" transform="translate(-51.782 -166.822)" fill="#f6c331" stroke="#f6c331" stroke-width="1.5"/>
          <path id="Path_76" data-name="Path 76" d="M158.5,289h16.964a.652.652,0,0,1,.652.652h0a.652.652,0,0,1-.652.652H158.5" transform="translate(-60.28 -196.382)" fill="#f6c331" stroke="#f6c331" stroke-width="1.5"/>
          <path id="Path_77" data-name="Path 77" d="M138.5,323h16.964a.652.652,0,0,1,.652.652h0a.652.652,0,0,1-.652.652H138.5" transform="translate(-45.5 -221.509)" fill="#f6c331" stroke="#f6c331" stroke-width="1.5"/>
        </g>
      </g>
    </g>
  </g>
</svg>
