<svg xmlns="http://www.w3.org/2000/svg" xmlns:xlink="http://www.w3.org/1999/xlink" width="549" height="536" viewBox="0 0 549 536">
  <defs>
    <clipPath id="clip-Artboard_1">
      <rect width="549" height="536"/>
    </clipPath>
  </defs>
  <g id="Artboard_1" data-name="Artboard – 1" clip-path="url(#clip-Artboard_1)">
    <rect width="549" height="536" fill="#fff"/>
    <g id="Group_11" data-name="Group 11" transform="translate(183.306 127.23)">
      <g id="Group_10" data-name="Group 10" transform="translate(0 0)">
        <g id="Group_9" data-name="Group 9">
          <g id="Group_7" data-name="Group 7">
            <g id="Group_6" data-name="Group 6">
              <g id="Group_5" data-name="Group 5">
                <g id="Group_4" data-name="Group 4">
                  <g id="Group_3" data-name="Group 3">
                    <g id="Group_2" data-name="Group 2">
                      <g id="Ellipse_1" data-name="Ellipse 1" transform="translate(0 56.492)" fill="none" stroke="#f3f0f0" stroke-width="5">
                        <ellipse cx="17.149" cy="17.149" rx="17.149" ry="17.149" stroke="none"/>
                        <ellipse cx="17.149" cy="17.149" rx="14.649" ry="14.649" fill="none"/>
                      </g>
                      <g id="Ellipse_2" data-name="Ellipse 2" transform="translate(0 151.318)" fill="none" stroke="#f3f0f0" stroke-width="5">
                        <ellipse cx="17.149" cy="17.149" rx="17.149" ry="17.149" stroke="none"/>
                        <ellipse cx="17.149" cy="17.149" rx="14.649" ry="14.649" fill="none"/>
                      </g>
                      <g id="Ellipse_3" data-name="Ellipse 3" transform="translate(49.431)" fill="none" stroke="#f3f0f0" stroke-width="5">
                        <ellipse cx="17.149" cy="17.149" rx="17.149" ry="17.149" stroke="none"/>
                        <ellipse cx="17.149" cy="17.149" rx="14.649" ry="14.649" fill="none"/>
                      </g>
                      <g id="Ellipse_4" data-name="Ellipse 4" transform="translate(49.431 210.837)" fill="none" stroke="#f3f0f0" stroke-width="5">
                        <ellipse cx="17.149" cy="17.149" rx="17.149" ry="17.149" stroke="none"/>
                        <ellipse cx="17.149" cy="17.149" rx="14.649" ry="14.649" fill="none"/>
                      </g>
                      <g id="Ellipse_5" data-name="Ellipse 5" transform="translate(98.861 31.272)" fill="none" stroke="#f3f0f0" stroke-width="5">
                        <ellipse cx="17.149" cy="17.149" rx="17.149" ry="17.149" stroke="none"/>
                        <ellipse cx="17.149" cy="17.149" rx="14.649" ry="14.649" fill="none"/>
                      </g>
                      <g id="Ellipse_6" data-name="Ellipse 6" transform="translate(98.861 164.432)" fill="none" stroke="#f3f0f0" stroke-width="5">
                        <ellipse cx="17.149" cy="17.149" rx="17.149" ry="17.149" stroke="none"/>
                        <ellipse cx="17.149" cy="17.149" rx="14.649" ry="14.649" fill="none"/>
                      </g>
                    </g>
                  </g>
                </g>
              </g>
            </g>
          </g>
          <g id="Group_8" data-name="Group 8" transform="translate(233.03 243.565) rotate(180)">
            <g id="Group_6-2" data-name="Group 6">
              <g id="Group_5-2" data-name="Group 5">
                <g id="Group_4-2" data-name="Group 4">
                  <g id="Group_3-2" data-name="Group 3">
                    <g id="Group_2-2" data-name="Group 2">
                      <g id="Ellipse_1-2" data-name="Ellipse 1" transform="translate(0 153.195)" fill="none" stroke="#f3f0f0" stroke-width="5">
                        <ellipse cx="17.149" cy="17.149" rx="17.149" ry="17.149" stroke="none"/>
                        <ellipse cx="17.149" cy="17.149" rx="14.649" ry="14.649" fill="none"/>
                      </g>
                      <g id="Ellipse_2-2" data-name="Ellipse 2" transform="translate(0 59.075)" fill="none" stroke="#f3f0f0" stroke-width="5">
                        <ellipse cx="17.149" cy="17.149" rx="17.149" ry="17.149" stroke="none"/>
                        <ellipse cx="17.149" cy="17.149" rx="14.649" ry="14.649" fill="none"/>
                      </g>
                      <g id="Ellipse_3-2" data-name="Ellipse 3" transform="translate(49.431 209.266)" fill="none" stroke="#f3f0f0" stroke-width="5">
                        <ellipse cx="17.149" cy="17.149" rx="17.149" ry="17.149" stroke="none"/>
                        <ellipse cx="17.149" cy="17.149" rx="14.649" ry="14.649" fill="none"/>
                      </g>
                      <g id="Ellipse_4-2" data-name="Ellipse 4" transform="translate(49.431)" fill="none" stroke="#f3f0f0" stroke-width="5">
                        <ellipse cx="17.149" cy="17.149" rx="17.149" ry="17.149" stroke="none"/>
                        <ellipse cx="17.149" cy="17.149" rx="14.649" ry="14.649" fill="none"/>
                      </g>
                      <g id="Ellipse_5-2" data-name="Ellipse 5" transform="translate(98.861 177.993)" fill="none" stroke="#f3f0f0" stroke-width="5">
                        <ellipse cx="17.149" cy="17.149" rx="17.149" ry="17.149" stroke="none"/>
                        <ellipse cx="17.149" cy="17.149" rx="14.649" ry="14.649" fill="none"/>
                      </g>
                      <g id="Ellipse_6-2" data-name="Ellipse 6" transform="translate(98.861 46.058)" fill="none" stroke="#f3f0f0" stroke-width="5">
                        <ellipse cx="17.149" cy="17.149" rx="17.149" ry="17.149" stroke="none"/>
                        <ellipse cx="17.149" cy="17.149" rx="14.649" ry="14.649" fill="none"/>
                      </g>
                    </g>
                  </g>
                </g>
              </g>
            </g>
          </g>
          <path id="Path_5" data-name="Path 5" d="M1986.014-499.767v105.111" transform="translate(-1869.989 559.521)" fill="none" stroke="#fff" stroke-width="5"/>
          <path id="Path_6" data-name="Path 6" d="M1937-530.769v35.978l16.524,22.1v78.3L1937-373.925v26.572" transform="translate(-1870.42 560.257)" fill="none" stroke="#fff" stroke-width="5"/>
          <path id="Path_7" data-name="Path 7" d="M0,0V35.978l16.524,22.1v78.3L0,156.844v26.572" transform="translate(165.824 212.904) rotate(180)" fill="none" stroke="#fff" stroke-width="5"/>
          <path id="Path_8" data-name="Path 8" d="M1900.466-477.855,1919.278-458v40.248l-18.812,25.965" transform="translate(-1870.741 559.713)" fill="none" stroke="#fff" stroke-width="5"/>
          <path id="Path_9" data-name="Path 9" d="M0,0,18.812,21.869l.035,40.248L0,86.064" transform="translate(201.12 166.062) rotate(-179)" fill="none" stroke="#fff" stroke-width="5"/>
        </g>
      </g>
    </g>
    <text id="Quadro" transform="translate(298.434 472.568)" fill="#fff" font-size="53" font-family="ProductSans-Regular, Product Sans"><tspan x="-88.007" y="0">Quadro</tspan></text>
  </g>
</svg>
