<svg xmlns="http://www.w3.org/2000/svg" width="546" height="472.973" viewBox="0 0 546 472.973">
  <g id="Group_192" data-name="Group 192" transform="translate(-222 -384)">
    <g id="Group_181" data-name="Group 181" transform="translate(309 384)">
      <g id="Group_180" data-name="Group 180">
        <g id="Group_175" data-name="Group 175">
          <ellipse id="Ellipse_54" data-name="Ellipse 54" cx="142.049" cy="142.88" rx="142.049" ry="142.88" fill="#f6c331"/>
          <ellipse id="Ellipse_55" data-name="Ellipse 55" cx="72.805" cy="73.23" rx="72.805" ry="73.23" transform="translate(158.935 137.678)" fill="#f6c331"/>
          <ellipse id="Ellipse_56" data-name="Ellipse 56" cx="17.585" cy="17.688" rx="17.585" ry="17.688" transform="translate(303.631 261.199)" fill="#f6c331"/>
        </g>
        <g id="Group_176" data-name="Group 176" transform="translate(74.113 72.388)">
          <g id="Group_183" data-name="Group 183" transform="matrix(0.995, 0.105, -0.105, 0.995, 11.859, -12.579)">
            <rect id="Rectangle_64" data-name="Rectangle 64" width="138.996" height="22.558" rx="4.167" transform="translate(72.27 55.491) rotate(31.12)" fill="#fff"/>
            <rect id="Rectangle_65" data-name="Rectangle 65" width="39.62" height="22.558" rx="4.167" transform="translate(143.091 109.534) rotate(121.12)" fill="#fff"/>
            <rect id="Rectangle_66" data-name="Rectangle 66" width="39.62" height="16.967" rx="4.167" transform="translate(173.596 124.29) rotate(121.12)" fill="#fff"/>
          </g>
          <ellipse id="Ellipse_57" data-name="Ellipse 57" cx="45.826" cy="46.762" rx="45.826" ry="46.762" fill="#fff"/>
        </g>
      </g>
    </g>
    <ellipse id="Ellipse_58" data-name="Ellipse 58" cx="21.175" cy="21.607" rx="21.175" ry="21.607" transform="translate(407.817 481.093)" fill="#f6c331"/>
    <text id="Enter_the_email_address_you_used_when_you_joined_and_we_ll_send_you_instructions_to_reset_your_password." data-name="Enter the email address you used when
you joined and we’ll send you instructions
 to reset your password." transform="translate(222 751.973)" fill="#707070" font-size="24" font-family="ProductSans-Regular, Product Sans"><tspan x="70.41" y="23">Enter the email address you used when</tspan><tspan x="58.41" y="52">you joined and we’ll send you instructions</tspan><tspan x="148.554" y="81" xml:space="preserve"> to reset your password.</tspan></text>
  </g>
</svg>
