<svg xmlns="http://www.w3.org/2000/svg" width="84.036" height="116.522" viewBox="0 0 84.036 116.522">
  <g id="Group_107" data-name="Group 107" transform="translate(-118 -228)">
    <g id="Group_2" data-name="Group 2" transform="translate(118 228)">
      <g id="Group_10" data-name="Group 10">
        <g id="Group_9" data-name="Group 9">
          <g id="Group_7" data-name="Group 7">
            <g id="Group_6" data-name="Group 6">
              <g id="Group_5" data-name="Group 5">
                <g id="Group_4" data-name="Group 4">
                  <g id="Group_3" data-name="Group 3">
                    <g id="Group_2-2" data-name="Group 2">
                      <g id="Ellipse_1" data-name="Ellipse 1" transform="translate(0 20.372)" fill="none" stroke="#e96357" stroke-width="4">
                        <ellipse cx="6.184" cy="6.184" rx="6.184" ry="6.184" stroke="none"/>
                        <ellipse cx="6.184" cy="6.184" rx="4.184" ry="4.184" fill="none"/>
                      </g>
                      <g id="Ellipse_2" data-name="Ellipse 2" transform="translate(0 54.569)" fill="none" stroke="#e96357" stroke-width="4">
                        <ellipse cx="6.184" cy="6.184" rx="6.184" ry="6.184" stroke="none"/>
                        <ellipse cx="6.184" cy="6.184" rx="4.184" ry="4.184" fill="none"/>
                      </g>
                      <g id="Ellipse_3" data-name="Ellipse 3" transform="translate(17.826)" fill="none" stroke="#e96357" stroke-width="4">
                        <ellipse cx="6.184" cy="6.184" rx="6.184" ry="6.184" stroke="none"/>
                        <ellipse cx="6.184" cy="6.184" rx="4.184" ry="4.184" fill="none"/>
                      </g>
                      <g id="Ellipse_4" data-name="Ellipse 4" transform="translate(17.826 76.033)" fill="none" stroke="#e96357" stroke-width="4">
                        <ellipse cx="6.184" cy="6.184" rx="6.184" ry="6.184" stroke="none"/>
                        <ellipse cx="6.184" cy="6.184" rx="4.184" ry="4.184" fill="none"/>
                      </g>
                      <g id="Ellipse_5" data-name="Ellipse 5" transform="translate(35.652 11.278)" fill="none" stroke="#e96357" stroke-width="4">
                        <ellipse cx="6.184" cy="6.184" rx="6.184" ry="6.184" stroke="none"/>
                        <ellipse cx="6.184" cy="6.184" rx="4.184" ry="4.184" fill="none"/>
                      </g>
                      <g id="Ellipse_6" data-name="Ellipse 6" transform="translate(35.652 59.298)" fill="none" stroke="#e96357" stroke-width="4">
                        <ellipse cx="6.184" cy="6.184" rx="6.184" ry="6.184" stroke="none"/>
                        <ellipse cx="6.184" cy="6.184" rx="4.184" ry="4.184" fill="none"/>
                      </g>
                    </g>
                  </g>
                </g>
              </g>
            </g>
          </g>
          <g id="Group_8" data-name="Group 8" transform="translate(84.036 87.835) rotate(180)">
            <g id="Group_6-2" data-name="Group 6">
              <g id="Group_5-2" data-name="Group 5">
                <g id="Group_4-2" data-name="Group 4">
                  <g id="Group_3-2" data-name="Group 3">
                    <g id="Group_2-3" data-name="Group 2">
                      <g id="Ellipse_1-2" data-name="Ellipse 1" transform="translate(0 55.246)" fill="none" stroke="#e96357" stroke-width="4">
                        <ellipse cx="6.184" cy="6.184" rx="6.184" ry="6.184" stroke="none"/>
                        <ellipse cx="6.184" cy="6.184" rx="4.184" ry="4.184" fill="none"/>
                      </g>
                      <g id="Ellipse_2-2" data-name="Ellipse 2" transform="translate(0 21.304)" fill="none" stroke="#e96357" stroke-width="4">
                        <ellipse cx="6.184" cy="6.184" rx="6.184" ry="6.184" stroke="none"/>
                        <ellipse cx="6.184" cy="6.184" rx="4.184" ry="4.184" fill="none"/>
                      </g>
                      <g id="Ellipse_3-2" data-name="Ellipse 3" transform="translate(17.826 75.466)" fill="none" stroke="#e96357" stroke-width="4">
                        <ellipse cx="6.184" cy="6.184" rx="6.184" ry="6.184" stroke="none"/>
                        <ellipse cx="6.184" cy="6.184" rx="4.184" ry="4.184" fill="none"/>
                      </g>
                      <g id="Ellipse_4-2" data-name="Ellipse 4" transform="translate(17.826)" fill="none" stroke="#e96357" stroke-width="4">
                        <ellipse cx="6.184" cy="6.184" rx="6.184" ry="6.184" stroke="none"/>
                        <ellipse cx="6.184" cy="6.184" rx="4.184" ry="4.184" fill="none"/>
                      </g>
                      <g id="Ellipse_5-2" data-name="Ellipse 5" transform="translate(35.652 64.189)" fill="none" stroke="#e96357" stroke-width="4">
                        <ellipse cx="6.184" cy="6.184" rx="6.184" ry="6.184" stroke="none"/>
                        <ellipse cx="6.184" cy="6.184" rx="4.184" ry="4.184" fill="none"/>
                      </g>
                      <g id="Ellipse_6-2" data-name="Ellipse 6" transform="translate(35.652 16.61)" fill="none" stroke="#e96357" stroke-width="4">
                        <ellipse cx="6.184" cy="6.184" rx="6.184" ry="6.184" stroke="none"/>
                        <ellipse cx="6.184" cy="6.184" rx="4.184" ry="4.184" fill="none"/>
                      </g>
                    </g>
                  </g>
                </g>
              </g>
            </g>
          </g>
          <path id="Path_5" data-name="Path 5" d="M1986.014-499.767v37.906" transform="translate(-1944.172 521.316)" fill="none" stroke="#e96357" stroke-width="4"/>
          <path id="Path_6" data-name="Path 6" d="M1937-530.769v12.974l5.959,7.971v28.239L1937-474.207v9.582" transform="translate(-1912.989 541.403)" fill="none" stroke="#e96357" stroke-width="4"/>
          <path id="Path_7" data-name="Path 7" d="M0,0V12.974l5.959,7.971V49.184L0,56.562v9.582" transform="translate(59.8 76.778) rotate(180)" fill="none" stroke="#e96357" stroke-width="4"/>
          <path id="Path_8" data-name="Path 8" d="M1900.466-477.855l6.784,7.159v14.514l-6.784,9.364" transform="translate(-1889.746 507.375)" fill="none" stroke="#e96357" stroke-width="4"/>
          <path id="Path_9" data-name="Path 9" d="M0,0,6.784,7.886,6.8,22.4,0,31.037" transform="translate(72.529 59.886) rotate(-179)" fill="none" stroke="#e96357" stroke-width="4"/>
        </g>
      </g>
    </g>
    <text id="Quadro" transform="translate(160 339.522)" font-size="19" font-family="ProductSans-Bold, Product Sans" font-weight="700"><tspan x="-33.003" y="0">Quadro</tspan></text>
  </g>
</svg>
