<svg xmlns="http://www.w3.org/2000/svg" width="153.308" height="68.543" viewBox="0 0 153.308 68.543">
  <g id="Group_131" data-name="Group 131" transform="translate(0 0)">
    <g id="Group_2" data-name="Group 2" transform="translate(0 0)">
      <g id="Group_10" data-name="Group 10">
        <g id="Group_9" data-name="Group 9">
          <g id="Group_7" data-name="Group 7" transform="translate(0 0)">
            <g id="Group_6" data-name="Group 6">
              <g id="Group_5" data-name="Group 5">
                <g id="Group_4" data-name="Group 4">
                  <g id="Group_3" data-name="Group 3">
                    <g id="Group_2-2" data-name="Group 2">
                      <g id="Ellipse_1" data-name="Ellipse 1" transform="translate(0 15.796)" fill="none" stroke="#f6c331" stroke-width="3.5">
                        <ellipse cx="4.795" cy="4.795" rx="4.795" ry="4.795" stroke="none"/>
                        <ellipse cx="4.795" cy="4.795" rx="3.045" ry="3.045" fill="none"/>
                      </g>
                      <g id="Ellipse_2" data-name="Ellipse 2" transform="translate(0 42.311)" fill="none" stroke="#f6c331" stroke-width="3.5">
                        <ellipse cx="4.795" cy="4.795" rx="4.795" ry="4.795" stroke="none"/>
                        <ellipse cx="4.795" cy="4.795" rx="3.045" ry="3.045" fill="none"/>
                      </g>
                      <g id="Ellipse_3" data-name="Ellipse 3" transform="translate(13.821)" fill="none" stroke="#f6c331" stroke-width="3.5">
                        <ellipse cx="4.795" cy="4.795" rx="4.795" ry="4.795" stroke="none"/>
                        <ellipse cx="4.795" cy="4.795" rx="3.045" ry="3.045" fill="none"/>
                      </g>
                      <g id="Ellipse_4" data-name="Ellipse 4" transform="translate(13.821 58.953)" fill="none" stroke="#f6c331" stroke-width="3.5">
                        <ellipse cx="4.795" cy="4.795" rx="4.795" ry="4.795" stroke="none"/>
                        <ellipse cx="4.795" cy="4.795" rx="3.045" ry="3.045" fill="none"/>
                      </g>
                      <g id="Ellipse_5" data-name="Ellipse 5" transform="translate(27.643 8.744)" fill="none" stroke="#f6c331" stroke-width="3.5">
                        <ellipse cx="4.795" cy="4.795" rx="4.795" ry="4.795" stroke="none"/>
                        <ellipse cx="4.795" cy="4.795" rx="3.045" ry="3.045" fill="none"/>
                      </g>
                      <g id="Ellipse_6" data-name="Ellipse 6" transform="translate(27.643 45.978)" fill="none" stroke="#f6c331" stroke-width="3.5">
                        <ellipse cx="4.795" cy="4.795" rx="4.795" ry="4.795" stroke="none"/>
                        <ellipse cx="4.795" cy="4.795" rx="3.045" ry="3.045" fill="none"/>
                      </g>
                    </g>
                  </g>
                </g>
              </g>
            </g>
          </g>
          <g id="Group_8" data-name="Group 8" transform="translate(65.158 68.104) rotate(180)">
            <g id="Group_6-2" data-name="Group 6">
              <g id="Group_5-2" data-name="Group 5">
                <g id="Group_4-2" data-name="Group 4">
                  <g id="Group_3-2" data-name="Group 3">
                    <g id="Group_2-3" data-name="Group 2">
                      <g id="Ellipse_1-2" data-name="Ellipse 1" transform="translate(0 42.835)" fill="none" stroke="#f6c331" stroke-width="3.5">
                        <ellipse cx="4.795" cy="4.795" rx="4.795" ry="4.795" stroke="none"/>
                        <ellipse cx="4.795" cy="4.795" rx="3.045" ry="3.045" fill="none"/>
                      </g>
                      <g id="Ellipse_2-2" data-name="Ellipse 2" transform="translate(0 16.518)" fill="none" stroke="#f6c331" stroke-width="3.5">
                        <ellipse cx="4.795" cy="4.795" rx="4.795" ry="4.795" stroke="none"/>
                        <ellipse cx="4.795" cy="4.795" rx="3.045" ry="3.045" fill="none"/>
                      </g>
                      <g id="Ellipse_3-2" data-name="Ellipse 3" transform="translate(13.821 58.514)" fill="none" stroke="#f6c331" stroke-width="3.5">
                        <ellipse cx="4.795" cy="4.795" rx="4.795" ry="4.795" stroke="none"/>
                        <ellipse cx="4.795" cy="4.795" rx="3.045" ry="3.045" fill="none"/>
                      </g>
                      <g id="Ellipse_4-2" data-name="Ellipse 4" transform="translate(13.821)" fill="none" stroke="#f6c331" stroke-width="3.5">
                        <ellipse cx="4.795" cy="4.795" rx="4.795" ry="4.795" stroke="none"/>
                        <ellipse cx="4.795" cy="4.795" rx="3.045" ry="3.045" fill="none"/>
                      </g>
                      <g id="Ellipse_5-2" data-name="Ellipse 5" transform="translate(27.643 49.769)" fill="none" stroke="#f6c331" stroke-width="3.5">
                        <ellipse cx="4.795" cy="4.795" rx="4.795" ry="4.795" stroke="none"/>
                        <ellipse cx="4.795" cy="4.795" rx="3.045" ry="3.045" fill="none"/>
                      </g>
                      <g id="Ellipse_6-2" data-name="Ellipse 6" transform="translate(27.643 12.879)" fill="none" stroke="#f6c331" stroke-width="3.5">
                        <ellipse cx="4.795" cy="4.795" rx="4.795" ry="4.795" stroke="none"/>
                        <ellipse cx="4.795" cy="4.795" rx="3.045" ry="3.045" fill="none"/>
                      </g>
                    </g>
                  </g>
                </g>
              </g>
            </g>
          </g>
          <path id="Path_5" data-name="Path 5" d="M1986.014-499.767v29.391" transform="translate(-1953.572 516.475)" fill="none" stroke="#f6c331" stroke-width="3.5"/>
          <path id="Path_6" data-name="Path 6" d="M1937-530.769v10.06l4.62,6.18v21.9l-4.62,5.72v7.43" transform="translate(-1918.383 539.014)" fill="none" stroke="#f6c331" stroke-width="3.5"/>
          <path id="Path_7" data-name="Path 7" d="M0,0V10.06L4.62,16.24v21.9L0,43.856v7.43" transform="translate(46.367 59.531) rotate(180)" fill="none" stroke="#f6c331" stroke-width="3.5"/>
          <path id="Path_8" data-name="Path 8" d="M1900.466-477.855l5.26,5.551v11.254l-5.26,7.26" transform="translate(-1892.155 500.744)" fill="none" stroke="#f6c331" stroke-width="3.5"/>
          <path id="Path_9" data-name="Path 9" d="M0,0,5.26,6.115l.01,11.254L0,24.065" transform="matrix(-1, -0.017, 0.017, -1, 56.236, 46.433)" fill="none" stroke="#f6c331" stroke-width="3.5"/>
        </g>
      </g>
    </g>
    <text id="Quadro" transform="translate(116.308 41.408)" font-size="21" font-family="ProductSans-Bold, Product Sans" font-weight="700"><tspan x="-36.477" y="0">Quadro</tspan></text>
  </g>
</svg>
